{
	"asset":{
		"generator":"Khronos glTF Blender I/O v3.6.27",
		"version":"2.0"
	},
	"extensionsUsed":[
		"KHR_materials_transmission",
		"KHR_materials_ior"
	],
	"scene":0,
	"scenes":[
		{
			"name":"Scene",
			"nodes":[
				0,
				1
			]
		}
	],
	"nodes":[
		{
			"mesh":0,
			"name":"tumbler-main",
			"scale":[
				0.6725944876670837,
				0.6725944876670837,
				0.6725944876670837
			],
			"translation":[
				-1.709092140197754,
				0.6727551221847534,
				0.00366954505443573
			]
		},
		{
			"mesh":1,
			"name":"tumbler-lid",
			"scale":[
				0.690154492855072,
				0.690154492855072,
				0.690154492855072
			],
			"translation":[
				-0.023025643080472946,
				0.19366659224033356,
				0.00366954505443573
			]
		}
	],
	"materials":[
		{
			"doubleSided":true,
			"name":"tumbler-inside",
			"pbrMetallicRoughness":{
				"baseColorTexture":{
					"index":0
				}
			}
		},
		{
			"doubleSided":true,
			"name":"Tumbler-Main",
			"pbrMetallicRoughness":{
				"baseColorTexture":{
					"index":1
				},
				"metallicFactor":0.5,
				"roughnessFactor":0.20000000298023224
			}
		},
		{
			"doubleSided":true,
			"name":"tumbler-Bottom",
			"pbrMetallicRoughness":{
				"baseColorFactor":[
					0.800000011920929,
					0.800000011920929,
					0.800000011920929,
					1
				],
				"metallicFactor":0.5,
				"roughnessFactor":0.20000000298023224
			}
		},
		{
			"doubleSided":true,
			"extensions":{
				"KHR_materials_transmission":{
					"transmissionFactor":1
				},
				"KHR_materials_ior":{
					"ior":1.4500000476837158
				}
			},
			"name":"tumbler-lid-02",
			"pbrMetallicRoughness":{
				"baseColorFactor":[
					0.800000011920929,
					0.800000011920929,
					0.800000011920929,
					1
				],
				"metallicFactor":0,
				"roughnessFactor":0.20000000298023224
			}
		}
	],
	"meshes":[
		{
			"name":"Cylinder.001",
			"primitives":[
				{
					"attributes":{
						"POSITION":0,
						"NORMAL":1,
						"TEXCOORD_0":2
					},
					"indices":3,
					"material":0
				},
				{
					"attributes":{
						"POSITION":4,
						"NORMAL":5,
						"TEXCOORD_0":6
					},
					"indices":7,
					"material":1
				},
				{
					"attributes":{
						"POSITION":8,
						"NORMAL":9,
						"TEXCOORD_0":10
					},
					"indices":11,
					"material":2
				}
			]
		},
		{
			"name":"Cylinder.002",
			"primitives":[
				{
					"attributes":{
						"POSITION":12,
						"NORMAL":13,
						"TEXCOORD_0":14
					},
					"indices":15,
					"material":3
				}
			]
		}
	],
	"textures":[
		{
			"sampler":0,
			"source":0
		},
		{
			"sampler":0,
			"source":1
		}
	],
	"images":[
		{
			"mimeType":"image/png",
			"name":"stainless-steel-9843-in-architextures",
			"uri":"stainless-steel-9843-in-architextures.png"
		},
		{
			"mimeType":"image/jpeg",
			"name":"eula-birthday-art-genshinimpact",
			"uri":"eula-birthday-art-genshinimpact.jpg"
		}
	],
	"accessors":[
		{
			"bufferView":0,
			"componentType":5126,
			"count":1370,
			"max":[
				3.513037919998169,
				4.521687030792236,
				1
			],
			"min":[
				1.513037919998169,
				-1.0336480140686035,
				-1
			],
			"type":"VEC3"
		},
		{
			"bufferView":1,
			"componentType":5126,
			"count":1370,
			"type":"VEC3"
		},
		{
			"bufferView":2,
			"componentType":5126,
			"count":1370,
			"type":"VEC2"
		},
		{
			"bufferView":3,
			"componentType":5123,
			"count":5454,
			"type":"SCALAR"
		},
		{
			"bufferView":4,
			"componentType":5126,
			"count":212,
			"max":[
				3.513037919998169,
				4.521687030792236,
				1
			],
			"min":[
				1.513037919998169,
				-1.0336480140686035,
				-1
			],
			"type":"VEC3"
		},
		{
			"bufferView":5,
			"componentType":5126,
			"count":212,
			"type":"VEC3"
		},
		{
			"bufferView":6,
			"componentType":5126,
			"count":212,
			"type":"VEC2"
		},
		{
			"bufferView":7,
			"componentType":5123,
			"count":576,
			"type":"SCALAR"
		},
		{
			"bufferView":8,
			"componentType":5126,
			"count":204,
			"max":[
				3.513037919998169,
				-1.0017400979995728,
				1
			],
			"min":[
				1.513037919998169,
				-1.0336480140686035,
				-1
			],
			"type":"VEC3"
		},
		{
			"bufferView":9,
			"componentType":5126,
			"count":204,
			"type":"VEC3"
		},
		{
			"bufferView":10,
			"componentType":5126,
			"count":204,
			"type":"VEC2"
		},
		{
			"bufferView":11,
			"componentType":5123,
			"count":960,
			"type":"SCALAR"
		},
		{
			"bufferView":12,
			"componentType":5126,
			"count":3706880,
			"max":[
				0.9906315207481384,
				5.166821479797363,
				1.1207445859909058
			],
			"min":[
				-0.9906315207481384,
				4.99373722076416,
				-0.9884390234947205
			],
			"type":"VEC3"
		},
		{
			"bufferView":13,
			"componentType":5126,
			"count":3706880,
			"type":"VEC3"
		},
		{
			"bufferView":14,
			"componentType":5126,
			"count":3706880,
			"type":"VEC2"
		},
		{
			"bufferView":15,
			"componentType":5125,
			"count":22241280,
			"type":"SCALAR"
		}
	],
	"bufferViews":[
		{
			"buffer":0,
			"byteLength":16440,
			"byteOffset":0,
			"target":34962
		},
		{
			"buffer":0,
			"byteLength":16440,
			"byteOffset":16440,
			"target":34962
		},
		{
			"buffer":0,
			"byteLength":10960,
			"byteOffset":32880,
			"target":34962
		},
		{
			"buffer":0,
			"byteLength":10908,
			"byteOffset":43840,
			"target":34963
		},
		{
			"buffer":0,
			"byteLength":2544,
			"byteOffset":54748,
			"target":34962
		},
		{
			"buffer":0,
			"byteLength":2544,
			"byteOffset":57292,
			"target":34962
		},
		{
			"buffer":0,
			"byteLength":1696,
			"byteOffset":59836,
			"target":34962
		},
		{
			"buffer":0,
			"byteLength":1152,
			"byteOffset":61532,
			"target":34963
		},
		{
			"buffer":0,
			"byteLength":2448,
			"byteOffset":62684,
			"target":34962
		},
		{
			"buffer":0,
			"byteLength":2448,
			"byteOffset":65132,
			"target":34962
		},
		{
			"buffer":0,
			"byteLength":1632,
			"byteOffset":67580,
			"target":34962
		},
		{
			"buffer":0,
			"byteLength":1920,
			"byteOffset":69212,
			"target":34963
		},
		{
			"buffer":0,
			"byteLength":44482560,
			"byteOffset":71132,
			"target":34962
		},
		{
			"buffer":0,
			"byteLength":44482560,
			"byteOffset":44553692,
			"target":34962
		},
		{
			"buffer":0,
			"byteLength":29655040,
			"byteOffset":89036252,
			"target":34962
		},
		{
			"buffer":0,
			"byteLength":88965120,
			"byteOffset":118691292,
			"target":34963
		}
	],
	"samplers":[
		{
			"magFilter":9729,
			"minFilter":9987
		}
	],
	"buffers":[
		{
			"byteLength":207656412,
			"uri":"tumbler3.0.bin"
		}
	]
}
